HIERARCHY
ROOT hip
{
  OFFSET 0 0 0
  CHANNELS 6 Xposition Yposition Zposition Zrotation Yrotation Xrotation
  JOINT abdomen
  {
    OFFSET 0 20.6881 -0.73152
    CHANNELS 3 Zrotation Xrotation Yrotation
    JOINT chest
    {
      OFFSET 0 11.7043 -0.48768
      CHANNELS 3 Zrotation Xrotation Yrotation
      JOINT neck
      {
        OFFSET 0 22.1894 -2.19456
        CHANNELS 3 Zrotation Xrotation Yrotation
        JOINT head
        {
          OFFSET -0.24384 7.07133 1.2192
          CHANNELS 3 Zrotation Xrotation Yrotation
          JOINT leftEye
          {
            OFFSET 4.14528 8.04674 8.04672
            CHANNELS 3 Zrotation Xrotation Yrotation
            End Site
            {
              OFFSET 1 0 0
            }
          }
          JOINT rightEye
          {
            OFFSET -3.6576 8.04674 8.04672
            CHANNELS 3 Zrotation Xrotation Yrotation
            End Site
            {
              OFFSET 1 0 0
            }
          }
        }
      }
      JOINT rCollar
      {
        OFFSET -2.68224 19.2634 -4.8768
        CHANNELS 3 Zrotation Xrotation Yrotation
        JOINT rShldr
        {
          OFFSET -8.77824 -1.95073 1.46304
          CHANNELS 3 Zrotation Xrotation Yrotation
          JOINT rForeArm
          {
            OFFSET -28.1742 -1.7115 0.48768
            CHANNELS 3 Zrotation Xrotation Yrotation
            JOINT rHand
            {
              OFFSET -22.5879 0.773209 7.07136
              CHANNELS 3 Zrotation Xrotation Yrotation
              JOINT rThumb1
              {
                OFFSET -1.2192 -0.487915 3.41376
                CHANNELS 3 Zrotation Xrotation Yrotation
                JOINT rThumb2
                {
                  OFFSET -3.37035 -0.52449 3.41376
                  CHANNELS 3 Zrotation Xrotation Yrotation
                  End Site
                  {
                    OFFSET -1.78271 -1.18214 1.43049
                  }
                }
              }
              JOINT rIndex1
              {
                OFFSET -7.75947 0.938293 5.60832
                CHANNELS 3 Zrotation Xrotation Yrotation
                JOINT rIndex2
                {
                  OFFSET -2.54057 -0.884171 1.56538
                  CHANNELS 3 Zrotation Xrotation Yrotation
                  End Site
                  {
                    OFFSET -1.62519 -0.234802 1.16502
                  }
                }
              }
              JOINT rMid1
              {
                OFFSET -8.24714 1.18213 3.41376
                CHANNELS 3 Zrotation Xrotation Yrotation
                JOINT rMid2
                {
                  OFFSET -3.10165 -0.590103 1.0647
                  CHANNELS 3 Zrotation Xrotation Yrotation
                  End Site
                  {
                    OFFSET -2.48547 -0.328903 0.83742
                  }
                }
              }
              JOINT rRing1
              {
                OFFSET -8.82822 0.546677 1.51678
                CHANNELS 3 Zrotation Xrotation Yrotation
                JOINT rRing2
                {
                  OFFSET -2.60934 -0.819778 -0.0198488
                  CHANNELS 3 Zrotation Xrotation Yrotation
                  End Site
                  {
                    OFFSET -2.33842 -0.294052 0.168128
                  }
                }
              }
              JOINT rPinky1
              {
                OFFSET -8.27202 -0.0477905 -0.4584
                CHANNELS 3 Zrotation Xrotation Yrotation
                JOINT rPinky2
                {
                  OFFSET -1.82734 -0.647385 -0.700984
                  CHANNELS 3 Zrotation Xrotation Yrotation
                  End Site
                  {
                    OFFSET -1.69225 -0.51767 -0.607171
                  }
                }
              }
            }
          }
        }
      }
      JOINT lCollar
      {
        OFFSET 2.68224 19.2634 -4.8768
        CHANNELS 3 Zrotation Xrotation Yrotation
        JOINT lShldr
        {
          OFFSET 8.77824 -1.95073 1.46304
          CHANNELS 3 Zrotation Xrotation Yrotation
          JOINT lForeArm
          {
            OFFSET 28.1742 -1.7115 0.48768
            CHANNELS 3 Zrotation Xrotation Yrotation
            JOINT lHand
            {
              OFFSET 22.5879 0.773209 7.07136
              CHANNELS 3 Zrotation Xrotation Yrotation
              JOINT lThumb1
              {
                OFFSET 1.2192 -0.487915 3.41376
                CHANNELS 3 Zrotation Xrotation Yrotation
                JOINT lThumb2
                {
                  OFFSET 3.37035 -0.52449 3.41376
                  CHANNELS 3 Zrotation Xrotation Yrotation
                  End Site
                  {
                    OFFSET 1.78271 -1.18214 1.43049
                  }
                }
              }
              JOINT lIndex1
              {
                OFFSET 7.75947 0.938293 5.60832
                CHANNELS 3 Zrotation Xrotation Yrotation
                JOINT lIndex2
                {
                  OFFSET 2.54057 -0.884171 1.56538
                  CHANNELS 3 Zrotation Xrotation Yrotation
                  End Site
                  {
                    OFFSET 1.62519 -0.234802 1.16502
                  }
                }
              }
              JOINT lMid1
              {
                OFFSET 8.24714 1.18213 3.41376
                CHANNELS 3 Zrotation Xrotation Yrotation
                JOINT lMid2
                {
                  OFFSET 3.10165 -0.590103 1.0647
                  CHANNELS 3 Zrotation Xrotation Yrotation
                  End Site
                  {
                    OFFSET 2.48547 -0.328903 0.83742
                  }
                }
              }
              JOINT lRing1
              {
                OFFSET 8.82822 0.546677 1.51678
                CHANNELS 3 Zrotation Xrotation Yrotation
                JOINT lRing2
                {
                  OFFSET 2.60934 -0.819778 -0.0198488
                  CHANNELS 3 Zrotation Xrotation Yrotation
                  End Site
                  {
                    OFFSET 2.33842 -0.294052 0.168128
                  }
                }
              }
              JOINT lPinky1
              {
                OFFSET 8.27202 -0.0477905 -0.4584
                CHANNELS 3 Zrotation Xrotation Yrotation
                JOINT lPinky2
                {
                  OFFSET 1.82734 -0.647385 -0.700984
                  CHANNELS 3 Zrotation Xrotation Yrotation
                  End Site
                  {
                    OFFSET 1.69225 -0.51767 -0.607171
                  }
                }
              }
            }
          }
        }
      }
    }
  }
  JOINT rButtock
  {
    OFFSET -8.77824 4.35084 1.2192
    CHANNELS 3 Zrotation Xrotation Yrotation
    JOINT rThigh
    {
      OFFSET 0 -1.70687 -2.19456
      CHANNELS 3 Zrotation Xrotation Yrotation
      JOINT rShin
      {
        OFFSET 0 -36.8199 0.73152
        CHANNELS 3 Zrotation Xrotation Yrotation
        JOINT rFoot
        {
          OFFSET 0.73152 -45.1104 -5.12064
          CHANNELS 3 Zrotation Xrotation Yrotation
          End Site
          {
            OFFSET -1.1221 -3.69964 12.103
          }
        }
      }
    }
  }
  JOINT lButtock
  {
    OFFSET 8.77824 4.35084 1.2192
    CHANNELS 3 Zrotation Xrotation Yrotation
    JOINT lThigh
    {
      OFFSET 0 -1.70687 -2.19456
      CHANNELS 3 Zrotation Xrotation Yrotation
      JOINT lShin
      {
        OFFSET 0 -36.8199 0.73152
        CHANNELS 3 Zrotation Xrotation Yrotation
        JOINT lFoot
        {
          OFFSET -0.73152 -45.1104 -5.12064
          CHANNELS 3 Zrotation Xrotation Yrotation
          End Site
          {
            OFFSET 1.1221 -3.69964 12.103
          }
        }
      }
    }
  }
}
MOTION
Frames:	4
Frame Time:	0.00833333
33.8722 66.7846 35.8437 -15.6009 -52.9055 31.2001 -3.15325 20.6967 9.00009 1.35495 -0.623882 2.17144 -0.220072 12.6137 -8.51099 12.2699 -41.3572 -13.5147 -0.0 0.0 0.0 -0.0 0.0 0.0 -7.32079e-14 -3.49675e-14 5.41688e-14 44.5095 -3.85304 40.1878 -10.6238 -4.52918 18.9767 -0.126969 10.1078 1.43563 2.24461e-09 -7.56001e-10 1.31074e-10 3.88406e-09 -1.31392e-09 2.03629e-10 2.24461e-09 -7.56002e-10 1.31064e-10 7.73091 5.47488 0.417314 2.24461e-09 -7.56001e-10 1.31071e-10 2.90554 0.965183 0.102902 2.24462e-09 -7.56e-10 1.31065e-10 10.2786 0.731801 0.0259123 2.24461e-09 -7.55999e-10 1.31064e-10 2.22167 -0.733487 -0.20892 -7.31022e-14 -3.50036e-14 5.39203e-14 -41.159 -3.00908 -35.5094 11.8244 -5.32624 -21.2704 0.220562 13.2582 -1.89765 3.63124e-11 -6.98616e-10 -2.15677e-10 6.01829e-11 -1.20871e-09 -3.72391e-10 3.63132e-11 -6.98611e-10 -2.15661e-10 -7.73091 5.47488 -0.417314 3.63186e-11 -6.9861e-10 -2.15677e-10 -2.90554 0.965183 -0.102902 3.63077e-11 -6.98615e-10 -2.15675e-10 -10.2786 0.731801 -0.0259123 3.63146e-11 -6.98616e-10 -2.1568e-10 -2.22167 -0.733487 0.20892 -2.03217e-16 0.0 -3.88251e-19 -36.1858 -27.9024 -6.14407 -0.162634 31.0601 0.534701 -6.82676 -6.78609 -27.5155 2.03217e-16 0.0 3.88251e-19 77.0937 -71.4481 85.7487 6.42384 81.9118 -6.9867 0.472204 -22.6274 0.0692184
34.1911 66.8738 35.2745 -15.6891 -52.6928 31.6486 -3.24965 20.6347 9.55717 1.1352 -0.692664 2.32114 -0.263562 12.6568 -8.9286 12.6583 -41.4355 -14.2465 -0.0 0.0 0.0 -0.0 0.0 0.0 -2.68893e-14 -1.61312e-13 -8.97152e-14 42.9872 -4.28142 41.1198 -10.5587 -4.48781 18.8537 -0.117504 9.6974 1.37632 5.22607e-09 -2.22473e-09 4.04986e-10 9.03779e-09 -3.8599e-09 6.51294e-10 5.22607e-09 -2.22473e-09 4.04976e-10 7.73091 5.47488 0.417314 5.22607e-09 -2.22473e-09 4.04982e-10 2.90554 0.965183 0.102902 5.22608e-09 -2.22473e-09 4.04976e-10 10.2786 0.731801 0.0259123 5.22607e-09 -2.22473e-09 4.04973e-10 2.22167 -0.733487 -0.20892 -2.67873e-14 -1.61339e-13 -8.99648e-14 -40.2955 -4.70877 -34.192 11.7199 -5.25364 -21.07 0.217834 13.1758 -1.88544 -1.4666e-09 -3.51363e-09 -1.38044e-09 -2.5503e-09 -6.02631e-09 -2.36588e-09 -1.4666e-09 -3.51362e-09 -1.38042e-09 -7.73091 5.47488 -0.417314 -1.46659e-09 -3.51362e-09 -1.38044e-09 -2.90554 0.965183 -0.102902 -1.46661e-09 -3.51362e-09 -1.38044e-09 -10.2786 0.731801 -0.0259123 -1.4666e-09 -3.51363e-09 -1.38044e-09 -2.22167 -0.733487 0.20892 -2.03217e-16 0.0 -3.88251e-19 -35.1288 -25.0436 -6.47205 -0.159802 30.7757 0.541022 -6.63895 -6.53701 -27.1428 2.03217e-16 0.0 3.88251e-19 79.143 -71.5364 87.6771 5.99612 81.4175 -6.55621 0.370036 -21.953 -0.142371
34.513 66.9837 34.6782 -15.7763 -52.4454 32.0882 -3.36601 20.5931 10.1445 0.893036 -0.786716 2.47713 -0.25224 12.727 -9.37091 13.0171 -41.5132 -15.0429 -0.0 0.0 0.0 -0.0 0.0 0.0 1.03737e-13 -2.79979e-13 -3.20369e-13 41.5682 -4.76624 41.8441 -10.5024 -4.45233 18.7473 -0.110809 9.40503 1.3341 9.33499e-09 -4.3469e-09 5.67311e-10 1.61373e-08 -7.53861e-09 8.97173e-10 9.33499e-09 -4.3469e-09 5.67301e-10 7.73091 5.47488 0.417314 9.33499e-09 -4.3469e-09 5.67305e-10 2.90554 0.965183 0.102902 9.335e-09 -4.3469e-09 5.673e-10 10.2786 0.731801 0.0259123 9.33499e-09 -4.3469e-09 5.67295e-10 2.22167 -0.733487 -0.20892 1.03783e-13 -2.79997e-13 -3.20621e-13 -39.2522 -6.22128 -32.8874 11.6412 -5.1998 -20.9184 0.211836 12.9927 -1.85832 -3.57341e-09 -7.87613e-09 -3.26956e-09 -6.21234e-09 -1.34966e-08 -5.60325e-09 -3.57342e-09 -7.87613e-09 -3.26955e-09 -7.73091 5.47488 -0.417314 -3.57341e-09 -7.87612e-09 -3.26956e-09 -2.90554 0.965183 -0.102902 -3.57342e-09 -7.87613e-09 -3.26956e-09 -10.2786 0.731801 -0.0259123 -3.57341e-09 -7.87613e-09 -3.26957e-09 -2.22167 -0.733487 0.20892 -2.03217e-16 0.0 -3.88251e-19 -33.9439 -22.1817 -6.80595 -0.156543 30.4345 0.546784 -6.41064 -6.25309 -26.6448 2.03217e-16 0.0 3.88251e-19 81.0899 -71.6633 89.4582 5.56532 80.8485 -6.11938 0.292617 -21.2522 -0.308797
34.8366 67.1127 34.0541 -15.8848 -52.1729 32.5369 -3.51489 20.5506 10.7468 0.644957 -0.875722 2.63448 -0.227941 12.8048 -9.8089 13.3853 -41.6038 -15.8264 -0.0 0.0 0.0 -0.0 0.0 0.0 2.33375e-13 -3.94621e-13 -5.52215e-13 40.2057 -5.23351 42.4371 -10.4558 -4.42306 18.6591 -0.103697 9.11231 1.29179 1.29605e-08 -6.37873e-09 6.90343e-10 2.24007e-08 -1.10604e-08 1.07974e-09 1.29605e-08 -6.37872e-09 6.90333e-10 7.73091 5.47488 0.417314 1.29605e-08 -6.37873e-09 6.90337e-10 2.90554 0.965183 0.102902 1.29605e-08 -6.37873e-09 6.90331e-10 10.2786 0.731801 0.0259123 1.29605e-08 -6.37873e-09 6.90326e-10 2.22167 -0.733487 -0.20892 2.3335e-13 -3.94629e-13 -5.52467e-13 -38.1229 -7.63685 -31.6214 11.5836 -5.16079 -20.807 0.203193 12.729 -1.81932 -5.41079e-09 -1.21848e-08 -5.12958e-09 -9.40818e-09 -2.08836e-08 -8.79383e-09 -5.41079e-09 -1.21848e-08 -5.12956e-09 -7.73091 5.47488 -0.417314 -5.41079e-09 -1.21848e-08 -5.12958e-09 -2.90554 0.965183 -0.102902 -5.4108e-09 -1.21848e-08 -5.12958e-09 -10.2786 0.731801 -0.0259123 -5.41079e-09 -1.21848e-08 -5.12958e-09 -2.22167 -0.733487 0.20892 -2.03217e-16 0.0 -3.88251e-19 -32.6795 -19.399 -7.2031 -0.153664 30.0907 0.549974 -6.12196 -5.86172 -26.0803 2.03217e-16 0.0 3.88251e-19 83.0061 -71.8117 91.1749 5.1496 80.2191 -5.69178 0.24816 -20.5226 -0.404039
